# xmcd
#
# Track frame offsets:
#	150
#	42235
#	84576
#	132366
#	163428
#	167969
#	209254
#
# Disc length: 3242 seconds
#
# Revision: 0
# Processed by: cddbd v1.5.2PL0 Copyright (c) Steve Scherf et al.
# Submitted via: audiograbber 1.83.01
#
DISCID=620ca807
DTITLE=Grateful Dead - 92-02-24 Oakland Coliseum Arena, Oakland CA
DYEAR=1900
DGENRE=
TTITLE0=Iko Iko
TTITLE1=Corrina
TTITLE2=The Other One
TTITLE3=Way To Go Home
TTITLE4=The Other One Jam
TTITLE5=The Same Thing
TTITLE6=Drums
EXTD=
EXTT0=
EXTT1=
EXTT2=
EXTT3=
EXTT4=
EXTT5=
EXTT6=
PLAYORDER=
